<?xml version="1.0" standalone="no"?>
<!DOCTYPE svg PUBLIC "-//W3C//DTD SVG 20010904//EN" "http://www.w3.org/TR/2001/REC-SVG-20010904/DTD/svg10.dtd">
<svg version="1.0" xmlns="http://www.w3.org/2000/svg"
  viewBox="0 0 732.000000 734.000000"
  preserveAspectRatio="xMidYMid meet">
  <g transform="translate(0.000000,734.000000) scale(0.100000,-0.100000)"
    fill="#A8B1FF" stroke="none">
    <path
      d="M3440 6609 c-705 -58 -1350 -356 -1845 -853 -478 -480 -763 -1072
-841 -1746 -20 -181 -15 -577 11 -740 53 -340 141 -613 291 -911 400 -792
1159 -1368 2031 -1543 219 -45 295 -51 588 -51 321 1 451 16 721 85 1059 270
1889 1125 2128 2191 195 870 -11 1770 -566 2471 -104 132 -334 362 -466 466
-358 284 -798 491 -1226 577 -263 53 -584 74 -826 54z m518 -160 c1157 -127
2106 -946 2398 -2069 66 -254 89 -468 81 -769 -8 -312 -44 -520 -137 -801
-140 -421 -350 -760 -670 -1081 -430 -433 -949 -695 -1565 -791 -188 -29 -587
-32 -770 -5 -620 92 -1159 360 -1591 791 -432 432 -699 969 -791 1591 -22 151
-25 570 -4 715 87 625 341 1151 765 1588 448 462 1027 750 1659 826 137 17
493 20 625 5z" />
    <path
      d="M3358 6325 c-469 -57 -914 -236 -1298 -523 -153 -114 -392 -354 -509
-511 -305 -409 -487 -883 -531 -1381 -72 -825 270 -1675 890 -2213 414 -358
870 -566 1415 -644 168 -23 526 -23 690 1 599 87 1111 341 1525 756 226 225
370 427 510 715 123 251 202 507 247 795 28 176 25 588 -5 765 -104 611 -384
1143 -811 1541 -422 391 -935 629 -1511 699 -150 18 -460 18 -612 0z m472
-221 l0 -66 32 6 c44 9 45 12 15 44 l-27 28 25 24 25 23 28 -24 c15 -13 31
-27 36 -31 6 -5 0 -18 -14 -33 l-23 -25 31 0 c30 0 32 -2 32 -34 0 -37 -12
-46 -60 -46 -15 0 -42 -3 -59 -6 -29 -6 -31 -9 -31 -48 l1 -41 40 44 39 44 28
-24 c15 -13 29 -25 31 -26 2 -2 -22 -32 -54 -68 -52 -60 -56 -68 -42 -82 19
-19 37 -9 37 20 0 42 14 51 49 33 36 -19 36 -17 16 -84 -19 -64 -49 -87 -100
-78 -22 4 -44 19 -62 41 l-28 34 -39 -24 -40 -24 -23 31 c-13 18 -23 35 -23
40 0 4 23 19 51 34 48 24 51 27 45 56 -3 17 -6 48 -6 69 0 36 -2 39 -29 39
-26 0 -30 4 -33 33 -3 26 -6 19 -21 -42 l-17 -74 25 -33 25 -32 -32 -27 -32
-27 -18 22 c-10 12 -18 18 -18 14 0 -5 -22 -33 -48 -63 l-47 -53 -23 41 -23
41 45 52 c25 29 46 56 46 59 0 4 -18 31 -40 60 -38 50 -39 55 -23 67 44 33 49
33 76 -4 l25 -36 7 34 c3 18 9 41 11 51 5 15 -3 17 -60 17 l-66 0 0 40 0 40
68 0 c37 0 84 -3 105 -6 36 -6 37 -8 37 -50 0 -40 2 -44 25 -44 24 0 25 2 25
70 l0 70 40 0 40 0 0 -66z m-710 -24 c0 -24 5 -24 58 -6 39 14 40 14 46 -9 3
-13 8 -29 11 -37 4 -10 -13 -19 -60 -33 -49 -14 -65 -23 -65 -36 0 -19 5 -18
106 15 31 10 48 -51 28 -100 -16 -38 -16 -38 20 -25 22 9 26 7 35 -21 15 -43
14 -46 -11 -50 -20 -3 -22 -8 -19 -38 8 -90 7 -102 -19 -121 -41 -31 -68 -28
-91 9 -21 31 -21 32 -1 32 31 0 44 23 32 55 -9 24 -14 27 -41 21 -25 -5 -31
-2 -39 20 -14 37 -13 43 13 49 15 4 26 18 33 41 11 34 11 35 -11 30 -13 -3
-31 -9 -40 -12 -11 -5 -18 0 -21 13 -7 27 -64 46 -98 33 -27 -10 -30 -17 -20
-43 5 -14 11 -14 49 -2 l44 13 15 -47 c67 -209 69 -237 16 -263 -34 -18 -35
-18 -52 5 l-18 22 0 -37 0 -36 -39 15 c-37 15 -38 16 -34 58 8 65 -48 292 -68
279 -5 -3 -14 7 -20 23 -7 19 -12 24 -18 14 -6 -9 -21 -11 -55 -6 -25 4 -46
11 -46 15 0 4 3 22 6 39 5 25 11 31 33 31 41 0 71 -11 71 -26 0 -15 18 -18 37
-6 10 6 10 12 -2 28 -22 30 -18 41 21 54 19 7 36 10 38 8 1 -1 10 -16 20 -31
12 -20 23 -27 37 -24 10 3 19 1 19 -5 0 -5 5 -6 10 -3 6 3 10 28 10 55 0 52
-2 50 68 59 6 0 12 -8 12 -19z m1471 -115 l135 -49 -15 -42 -15 -42 -65 25
c-37 14 -73 27 -82 30 -12 3 -26 -24 -63 -124 -26 -70 -44 -129 -39 -131 4 -2
46 -18 93 -36 90 -34 91 -36 70 -92 l-9 -24 -83 31 c-46 17 -146 53 -223 80
-178 63 -170 58 -155 103 6 20 17 36 23 35 7 0 50 -15 97 -32 l85 -33 42 114
c23 62 45 122 48 132 5 15 -8 22 -75 46 -44 15 -80 31 -80 35 0 3 7 22 15 42
l15 35 72 -27 c40 -15 134 -49 209 -76z m-1711 -170 l0 -46 -52 7 c-29 4 -55
8 -57 10 -2 2 0 19 3 39 7 34 8 35 56 35 l50 0 0 -45z m-376 -16 c10 -17 16
-31 14 -33 -1 -1 -28 -20 -58 -42 -30 -23 -65 -46 -77 -53 -22 -11 -30 -35
-15 -44 4 -3 44 22 89 54 l83 59 24 -38 c41 -63 41 -78 5 -91 -18 -6 -33 -11
-34 -11 -2 0 -5 9 -8 21 -3 12 -10 18 -16 14 -8 -4 -6 -16 6 -36 10 -16 20
-29 23 -29 3 0 21 11 40 25 19 14 35 25 36 25 2 0 12 -13 23 -29 l21 -29 -35
-23 c-38 -26 -41 -35 -21 -61 12 -17 16 -16 54 12 23 17 44 30 47 30 5 0 35
-55 35 -64 0 -3 -28 -24 -62 -46 -45 -29 -72 -40 -101 -40 l-39 0 7 -40 7 -40
-41 0 c-27 0 -41 -4 -41 -13 0 -7 -13 -26 -28 -41 -26 -24 -30 -25 -42 -11
-20 24 -30 18 -23 -15 5 -29 5 -30 -36 -30 -35 0 -41 3 -41 21 0 58 -124 254
-161 254 -11 0 -28 12 -37 28 -17 28 -17 29 11 51 l29 23 -26 20 -25 20 28 27
c33 32 38 32 68 4 21 -19 25 -20 49 -8 22 12 27 12 35 0 12 -17 7 72 -5 101
-5 11 4 20 29 32 44 21 43 21 47 -3 3 -17 11 -14 68 30 36 26 67 49 70 49 3 1
14 -13 24 -30z m2646 -115 c0 -6 -19 -21 -43 -34 -38 -20 -93 -78 -83 -87 7
-7 105 35 155 66 l50 30 26 -32 25 -32 -24 -19 -25 -19 52 -41 c29 -22 63 -51
76 -62 l24 -22 -22 -31 -23 -31 -63 50 -63 51 -17 -23 c-15 -22 -15 -24 16
-48 77 -60 73 -51 46 -88 l-24 -32 -52 41 c-50 40 -53 41 -66 23 -8 -11 -15
-21 -15 -24 0 -3 25 -25 54 -49 l55 -43 -21 -29 c-12 -16 -24 -29 -27 -29 -3
0 -31 20 -63 44 l-56 45 -28 -40 -27 -40 -26 23 c-14 13 -30 26 -35 29 -6 6
117 176 144 199 3 3 18 22 34 42 l27 37 -52 -20 c-28 -11 -53 -19 -54 -17 -1
2 -6 20 -11 40 l-9 37 -80 -101 c-44 -56 -85 -108 -91 -116 -10 -13 -15 -13
-43 7 -17 12 -31 26 -31 31 0 4 28 43 63 87 84 105 84 103 47 93 -23 -7 -30
-6 -26 3 2 7 10 28 17 49 10 32 19 39 71 58 33 12 85 37 116 56 l57 34 22 -27
c13 -16 23 -33 23 -39z m-2225 -49 c4 -53 5 -98 2 -101 -3 -3 -21 -2 -41 1
l-36 7 0 57 c0 31 -3 73 -6 94 l-7 37 41 0 40 0 7 -95z m1000 -150 c272 -41
511 -133 736 -283 440 -295 726 -760 790 -1285 18 -153 7 -424 -25 -573 -220
-1040 -1274 -1663 -2291 -1353 -611 188 -1090 707 -1223 1330 -47 216 -54 490
-18 688 141 773 735 1356 1505 1476 120 18 402 18 526 0z m-1983 -234 l77 -54
-33 -46 c-18 -25 -65 -90 -104 -144 l-71 -99 67 -67 c79 -78 114 -137 91 -152
-7 -5 -29 -9 -46 -9 -27 0 -37 7 -56 38 -30 47 -78 90 -189 170 l-87 63 51 70
c42 57 49 72 37 80 -8 5 -18 9 -22 9 -5 0 4 18 20 40 23 34 32 40 54 36 23 -4
32 4 74 60 26 36 50 64 54 62 3 -2 41 -27 83 -57z m3703 -86 c26 -41 51 -75
54 -75 4 0 12 5 18 11 7 7 19 -1 41 -29 29 -36 30 -40 16 -60 -17 -25 -14 -33
48 -124 l39 -58 -53 -34 -53 -33 -14 21 c-8 11 -16 23 -17 25 -2 2 -10 -2 -18
-8 -11 -10 -17 -8 -29 10 -15 20 -16 18 -22 -36 -7 -56 -8 -56 -39 -53 -24 2
-32 8 -34 27 -4 26 -50 101 -62 101 -20 0 -15 -18 21 -76 21 -35 39 -68 39
-73 0 -5 -10 -15 -23 -24 -22 -14 -24 -13 -67 54 -25 38 -48 69 -52 69 -21 0
-11 -25 37 -98 30 -45 55 -84 55 -86 0 -10 -64 -38 -67 -30 -2 5 -62 99 -133
209 l-129 200 22 17 c12 10 27 18 34 18 6 0 28 -28 49 -62 42 -70 63 -98 76
-98 16 0 7 21 -34 81 l-41 61 24 19 c13 10 26 19 29 19 3 0 24 -30 48 -65 23
-36 47 -65 52 -65 16 0 12 10 -25 66 -39 58 -42 75 -19 95 13 11 22 10 52 -6
20 -10 41 -21 46 -23 5 -3 0 10 -10 27 -18 31 -18 33 -1 43 18 9 18 11 1 29
-9 11 -15 21 -12 24 19 19 85 64 94 65 6 0 32 -34 59 -75z m-3501 -62 l94 -67
-25 -33 c-15 -19 -32 -32 -39 -29 -16 6 -116 -138 -104 -150 6 -6 -1 -22 -16
-42 l-25 -32 -44 33 c-24 17 -66 48 -93 67 l-50 35 46 65 c72 103 156 220 160
220 1 0 45 -30 96 -67z m-564 -993 c133 -68 147 -248 27 -344 -36 -29 -44 -31
-122 -31 -76 0 -87 3 -127 30 -103 72 -117 216 -30 309 60 63 167 78 252 36z
m4455 -26 c53 -35 73 -153 37 -224 -20 -41 -28 -43 -65 -13 -27 21 -28 23 -13
52 21 40 20 74 -3 95 -19 17 -20 17 -34 -6 -8 -12 -20 -47 -26 -76 -14 -70
-26 -89 -64 -112 -117 -72 -228 58 -183 213 22 75 37 86 80 56 l33 -23 -18
-30 c-23 -37 -25 -109 -4 -126 31 -26 52 -3 70 75 9 40 25 85 36 99 35 45 103
54 154 20z m-16 -371 l83 -6 -7 -101 c-11 -160 -42 -206 -140 -206 -89 0 -125
42 -134 155 l-6 70 -63 3 c-52 2 -63 6 -58 18 3 9 6 32 6 51 l0 36 118 -7 c64
-3 155 -9 201 -13z m-4349 -98 l0 -55 -117 0 c-65 0 -155 -3 -200 -7 l-83 -6
0 52 0 51 48 1 c60 2 323 15 340 17 8 1 12 -15 12 -53z m-77 -141 c74 -37 91
-68 117 -206 11 -56 19 -103 17 -104 -1 -1 -81 -16 -177 -33 -96 -17 -185 -33
-196 -36 -20 -4 -23 2 -38 83 -22 118 -20 161 7 213 44 83 184 126 270 83z
m4184 -113 c54 -10 140 -27 191 -37 l94 -17 -7 -46 c-4 -25 -8 -47 -10 -49 -8
-8 -395 73 -395 83 0 15 20 85 25 85 2 0 48 -9 102 -19z m68 -209 c167 -58
170 -59 168 -86 -4 -58 -23 -70 -157 -106 -69 -18 -126 -36 -126 -39 0 -3 47
-22 105 -41 83 -27 104 -38 99 -50 -3 -8 -8 -27 -11 -42 -3 -16 -10 -28 -14
-28 -9 0 -371 120 -377 125 -2 2 3 22 11 46 l15 43 128 34 c71 19 136 36 144
39 8 3 -38 23 -102 45 l-116 39 15 45 c11 34 19 43 32 39 9 -3 93 -31 186 -63z
m-4097 -111 c39 -27 82 -114 82 -163 0 -98 -37 -125 -321 -233 -12 -4 -20 6
-34 40 -9 25 -16 48 -14 49 2 2 59 24 127 50 120 47 152 69 152 107 0 24 -48
79 -69 79 -9 0 -74 -22 -143 -48 l-126 -49 -17 44 c-10 24 -16 46 -14 48 2 1
56 23 119 48 63 24 122 47 130 51 28 11 98 -1 128 -23z m3902 -326 c69 -20
143 -42 165 -47 22 -6 44 -14 48 -18 5 -4 -4 -26 -19 -49 -31 -47 -15 -49
-181 14 -62 24 -110 38 -106 31 3 -6 43 -48 87 -94 101 -103 104 -110 75 -154
l-23 -35 -130 43 c-72 24 -135 44 -140 44 -6 0 36 -47 93 -104 l103 -103 -24
-37 c-12 -19 -26 -35 -30 -33 -5 1 -68 70 -142 152 -129 144 -133 151 -121
175 36 67 28 66 166 21 140 -46 146 -47 127 -27 -7 7 -50 52 -96 99 l-84 86
27 45 c24 40 28 44 53 36 15 -4 83 -24 152 -45z m-3686 -86 c15 -22 26 -42 24
-43 -2 -2 -52 -32 -113 -69 -166 -99 -155 -87 -123 -145 l27 -49 -37 -21 -37
-20 -86 138 -87 139 35 21 c19 11 37 20 41 20 4 0 20 -21 35 -46 l27 -45 33
19 c89 55 232 141 233 142 1 0 14 -18 28 -41z m147 -212 c55 -37 92 -98 97
-162 l4 -55 -40 0 c-40 0 -40 1 -47 43 -9 54 -20 73 -50 93 -21 14 -28 14 -41
3 -18 -15 -15 -37 16 -123 33 -92 13 -147 -65 -176 -79 -30 -195 81 -195 186
0 22 4 24 45 24 41 0 45 -2 45 -25 0 -33 18 -69 42 -84 17 -11 23 -10 36 2 13
14 12 23 -12 81 -32 81 -33 120 -3 163 37 56 111 69 168 30z m3208 -223 l83
-196 -33 -34 c-18 -19 -38 -34 -45 -34 -7 0 -54 20 -106 43 -51 24 -136 63
-190 86 l-96 42 36 36 c34 34 37 35 66 24 17 -7 38 -15 46 -17 9 -3 37 17 68
49 l54 54 -20 39 -20 39 31 33 c17 17 34 32 37 32 3 0 44 -88 89 -196z m-3050
-139 c39 -33 71 -65 71 -71 0 -6 -11 -21 -25 -34 l-25 -24 -38 36 c-20 19 -54
50 -74 68 l-37 32 22 29 c11 16 24 28 28 27 4 -2 39 -30 78 -63z m2759 -135
l108 -164 -46 -32 c-88 -60 -156 -94 -191 -94 -83 0 -147 97 -115 173 l14 34
-52 18 c-28 10 -66 25 -84 32 l-34 14 41 29 c22 17 45 30 50 30 5 0 41 -13 81
-29 104 -43 125 -28 70 47 -16 23 -31 46 -32 51 -3 11 62 61 74 58 4 -1 56
-76 116 -167z m-2443 69 c61 -39 114 -75 119 -79 5 -5 -17 -49 -51 -102 -33
-51 -79 -125 -104 -165 -24 -40 -48 -72 -52 -73 -4 0 -61 34 -126 76 l-119 76
20 34 c11 19 23 34 26 34 4 0 41 -23 82 -50 75 -49 75 -49 93 -28 9 11 17 25
17 32 0 6 -31 31 -70 55 -38 23 -70 46 -70 49 0 4 11 20 24 36 l23 30 73 -47
73 -47 19 30 c10 17 18 32 18 34 0 2 -36 27 -80 56 -44 29 -80 55 -80 57 0 13
36 63 45 63 5 0 60 -32 120 -71z m2090 -288 c42 -101 75 -185 73 -186 -2 -2
-43 -20 -93 -41 -153 -64 -233 -51 -298 51 -28 44 -32 58 -32 121 0 83 15 111
81 155 32 21 185 90 191 85 1 0 36 -84 78 -185z m-1866 153 l40 -16 -29 -76
c-15 -43 -33 -89 -39 -104 -6 -16 -7 -28 -3 -28 4 1 36 28 72 61 56 52 69 59
94 54 16 -3 31 -7 33 -8 2 -2 8 -42 14 -88 6 -46 14 -87 18 -92 4 -4 22 36 41
89 19 52 37 97 40 99 3 1 23 -5 46 -14 l41 -16 -68 -180 c-37 -99 -69 -184
-71 -188 -6 -14 -87 23 -92 41 -6 18 -36 215 -36 233 0 6 -45 -28 -100 -75
l-100 -85 -46 16 c-35 12 -44 19 -39 32 4 9 33 86 65 171 73 193 71 190 76
190 2 0 21 -7 43 -16z m492 -165 c5 -8 9 -26 9 -42 0 -33 18 -41 106 -51 l61
-7 18 41 18 41 46 -7 c25 -4 47 -8 49 -9 1 -1 -31 -62 -71 -136 -41 -74 -87
-158 -103 -187 l-29 -53 -49 5 c-27 3 -51 7 -53 10 -5 4 -103 400 -103 413 0
12 93 -5 101 -18z m585 -25 c103 -49 151 -178 104 -282 -49 -107 -169 -152
-278 -102 -46 21 -47 34 -4 73 16 15 25 16 41 8 39 -21 87 -13 120 20 26 26
31 38 31 80 0 81 -36 128 -98 129 -45 0 -72 -16 -72 -43 0 -20 4 -22 39 -19
l39 4 3 -45 4 -45 -85 -4 c-47 -2 -86 -4 -87 -3 -2 1 -6 35 -9 77 -8 92 0 108
68 142 61 30 132 34 184 10z m380 -89 c3 -20 5 -38 2 -40 -6 -6 -105 -31 -155
-39 -40 -7 -41 -7 -48 24 -4 18 -3 36 1 40 7 6 157 46 186 49 4 1 10 -15 14
-34z" />
    <path
      d="M3004 5783 c-8 -3 -7 -19 3 -55 7 -29 13 -65 13 -80 0 -30 9 -35 27
-17 8 8 8 21 1 43 -5 17 -15 49 -21 72 -7 22 -17 39 -23 37z" />
    <path
      d="M2396 5532 l-38 -26 -18 22 c-24 29 -48 27 -88 -6 -23 -19 -31 -33
-26 -45 8 -22 20 -22 51 3 14 11 31 20 38 20 7 0 41 -40 76 -90 34 -49 64 -90
66 -90 14 0 -4 48 -37 98 l-39 61 30 22 c17 12 31 20 32 18 35 -55 62 -89 73
-93 8 -3 14 -3 14 0 0 5 -93 135 -94 133 -1 0 -18 -12 -40 -27z" />
    <path
      d="M2287 5394 c-3 -4 2 -19 12 -33 10 -14 28 -46 41 -70 20 -40 23 -42
38 -27 15 15 13 20 -24 73 -41 57 -55 69 -67 57z" />
    <path
      d="M3438 5395 c-1003 -137 -1670 -1096 -1452 -2085 145 -656 674 -1175
1334 -1310 582 -119 1187 72 1595 502 242 255 393 562 456 928 20 114 17 422
-5 545 -37 203 -120 427 -222 598 -109 182 -313 401 -487 524 -345 243 -801
355 -1219 298z m557 -55 c229 -48 464 -150 645 -278 116 -82 315 -279 391
-387 227 -321 332 -673 316 -1059 -31 -788 -602 -1442 -1385 -1588 -138 -25
-406 -30 -537 -9 -268 43 -493 132 -720 284 -136 92 -342 303 -438 447 -221
335 -319 724 -276 1108 85 774 664 1380 1431 1497 137 21 441 13 573 -15z" />
    <path
      d="M3515 5009 c-498 -53 -941 -407 -1103 -884 -54 -159 -67 -242 -67
-435 0 -193 13 -276 67 -435 117 -343 388 -637 721 -780 312 -134 663 -149
967 -39 84 30 224 94 218 99 -2 2 -37 -5 -78 -16 -96 -26 -298 -36 -400 -20
-417 65 -749 351 -868 746 -37 123 -44 167 -43 309 0 133 12 217 47 322 76
227 205 403 398 544 115 84 293 158 435 181 93 15 281 13 376 -4 290 -53 545
-230 709 -491 31 -49 56 -85 56 -79 0 21 -59 183 -90 243 -257 511 -779 798
-1345 739z" />
    <path
      d="M4161 3966 l-193 -182 -242 33 c-132 18 -247 32 -254 31 -7 -2 62
-93 153 -202 104 -126 165 -207 165 -221 0 -13 -11 -136 -25 -275 -14 -139
-24 -254 -22 -256 2 -2 92 82 200 187 l197 190 257 -35 c141 -19 259 -34 261
-32 1 2 -75 94 -171 205 -145 168 -173 206 -170 229 9 84 44 505 41 507 -2 2
-90 -79 -197 -179z" />
    <path d="M1838 5138 c-119 -158 -136 -190 -102 -200 13 -3 156 189 158 212 2
28 -31 21 -56 -12z" />
    <path
      d="M5560 5105 c0 -3 39 -67 86 -141 53 -82 91 -131 96 -126 11 11 -151
271 -169 272 -7 0 -13 -2 -13 -5z" />
    <path d="M5551 4904 c21 -30 34 -42 37 -33 3 8 10 17 16 21 15 10 -22 45 -57
54 l-28 6 32 -48z" />
    <path
      d="M2006 4966 c-25 -36 -46 -68 -46 -73 0 -8 40 -37 44 -31 1 2 24 34
50 71 39 55 45 71 36 82 -21 26 -37 17 -84 -49z" />
    <path d="M1403 3990 c-56 -34 -56 -118 1 -155 84 -55 196 -10 196 78 0 76
-121 124 -197 77z" />
    <path
      d="M5904 3565 c-12 -67 48 -112 89 -67 22 24 23 88 1 96 -9 3 -31 6 -49
6 -31 0 -35 -3 -41 -35z" />
    <path
      d="M1472 3360 c-58 -14 -82 -45 -82 -107 0 -39 4 -55 15 -60 16 -6 205
25 217 36 14 12 -14 102 -35 115 -30 19 -76 26 -115 16z" />
    <path d="M5203 2108 l-31 -33 63 -30 62 -31 -24 56 c-14 30 -28 58 -32 63 -4
4 -21 -8 -38 -25z" />
    <path
      d="M4923 1810 c-50 -30 -58 -54 -30 -86 l24 -27 41 23 c23 13 42 28 42
32 0 5 -10 24 -23 43 l-23 34 -31 -19z" />
    <path
      d="M4489 1733 c-70 -29 -86 -103 -39 -181 29 -47 63 -57 127 -37 l53 16
-14 32 c-7 18 -28 67 -46 110 -18 42 -36 77 -39 76 -3 -1 -22 -8 -42 -16z" />
    <path d="M3340 1488 c1 -7 7 -38 14 -68 l13 -55 31 61 31 62 -31 6 c-45 9 -58
7 -58 -6z" />
    <path d="M42 345 c0 -16 2 -22 5 -12 2 9 2 23 0 30 -3 6 -5 -1 -5 -18z" />
    <path d="M42 125 c0 -16 2 -22 5 -12 2 9 2 23 0 30 -3 6 -5 -1 -5 -18z" />
  </g>
</svg>